<svg width="278" height="131" viewBox="0 0 278 131" xmlns="http://www.w3.org/2000/svg" xmlns:xlink="http://www.w3.org/1999/xlink"><defs><path id="a" d="M182.067.012H.194v128.546h181.873V.012z"/><path id="c" d="M0 130.15h276.872V.205H0z"/></defs><g transform="translate(.491 .127)" fill="none" fill-rule="evenodd"><g transform="translate(17.095 .193)"><mask id="b" fill="#fff"><use xlink:href="#a"/></mask><path d="M174.842 128.558H7.419a7.226 7.226 0 0 1-7.225-7.225V7.237A7.226 7.226 0 0 1 7.419.012h167.423a7.226 7.226 0 0 1 7.225 7.225v114.096a7.226 7.226 0 0 1-7.225 7.225" fill="#CBD8DE" mask="url(#b)"/></g><mask id="d" fill="#fff"><use xlink:href="#c"/></mask><path fill="#EDF4F3" mask="url(#d)" d="M25.239 113.554h166.007V10.056H25.24z"/><path stroke="#CBD8DE" stroke-width=".75" mask="url(#d)" d="M25.239 113.554h166.007V10.056H25.24z"/><path d="M204.976 130.15H11.186C7.63 130.15 0 127.241 0 123.685h216.162c0 3.556-7.63 6.465-11.186 6.465" fill="#99B1BF" mask="url(#d)"/><path d="M94.949 124.83h26.264c.63 0 1.146-.515 1.146-1.145H93.803c0 .63.515 1.145 1.146 1.145" fill="#EDF4F3" mask="url(#d)"/><path d="M109.059 4.775a.833.833 0 1 1-1.667 0 .833.833 0 0 1 1.667 0" fill="#252E33" mask="url(#d)"/><path fill="#CC3C27" mask="url(#d)" d="M274.693 50.44l-4.463-1.974 2.18-4.923 4.461 1.973z"/><path d="M240.408 115.85l-2.097 9.904c-.032.15.161.24.255.118l6.307-8.046-4.465-1.975z" fill="#252E33" mask="url(#d)"/><path d="M240.408 115.85l-1.836 8.67c.51.227.37.183.771.361l5.53-7.055-4.465-1.975z" fill="#BA9F93" mask="url(#d)"/><path fill="#EDB31E" mask="url(#d)" d="M273.42 53.315l-28.549 64.51-1.858.757-.392-1.698-1.52.852-.69-1.885 28.547-64.509z"/><path fill="#708DA0" mask="url(#d)" d="M273.013 54.236l-4.462-1.975 2.586-5.844 4.463 1.975z"/><path fill="#4A6271" mask="url(#d)" d="M274.877 50.054l-.225.51-4.485-1.984.225-.51zM274.43 51.064l-.225.51-4.484-1.984.224-.51zM273.983 52.074l-.225.509-4.484-1.983.225-.51z"/><path fill="#CC3C27" mask="url(#d)" d="M243.333 124.143l4.877-.105.116 5.384-4.878.104z"/><path d="M246.634 50.366l-2.301-9.857c-.035-.15-.248-.15-.282 0l-2.3 9.962 4.883-.105z" fill="#252E33" mask="url(#d)"/><path d="M246.634 50.366l-2.014-8.63c-.559.011-.413-.009-.853.001l-2.015 8.734 4.882-.105z" fill="#BA9F93" mask="url(#d)"/><path fill="#EDB31E" mask="url(#d)" d="M243.266 121l-1.512-70.53 1.362-1.472 1.076 1.37 1.016-1.415 1.423 1.413 1.513 70.528z"/><path fill="#708DA0" mask="url(#d)" d="M243.244 119.994l4.877-.105.137 6.388-4.877.105z"/><path fill="#4A6271" mask="url(#d)" d="M243.33 124.57l-.012-.555 4.902-.106.012.557zM243.306 123.467l-.012-.556 4.902-.106.012.557zM243.282 122.363l-.012-.556 4.902-.106.013.557zM240.076 108.827l4.074 8.722c.062.132.26.09.263-.056l.186-9.72-4.523 1.054z"/><path d="M240.22 109.137l3.423 7.327c.517-.121.385-.073.793-.168l.156-8.167a.278.278 0 0 0-.341-.276l-3.841.896a.278.278 0 0 0-.19.388" fill="#708DA0" mask="url(#d)"/><path d="M232.366 54.448l12.458 53.422a1.886 1.886 0 0 1-1.408 2.266l-1.234.287a1.885 1.885 0 0 1-2.265-1.408l-12.459-53.422a1.886 1.886 0 0 1 1.41-2.266l1.232-.287a1.886 1.886 0 0 1 2.266 1.408" fill="#99B1BF" mask="url(#d)"/><path d="M228.487 35.129l6.114 26.212a1.886 1.886 0 0 1-1.41 2.265l-2.422.565a1.886 1.886 0 0 1-2.266-1.407l-6.112-26.214a1.887 1.887 0 0 1 1.408-2.265l2.423-.565a1.886 1.886 0 0 1 2.265 1.409" fill="#CBD8DE" mask="url(#d)"/><path fill="#CBD8DE" mask="url(#d)" d="M222.558 35.56l-1.938.453 5.422 23.255 1.213-.281-4.125-17.685.726-.17z"/><path fill="#708DA0" mask="url(#d)" d="M227.19 34.519l.12.515-3.905.91-.12-.514zM227.428 35.542l.12.515-3.905.91-.12-.515zM227.667 36.564l.12.516-3.905.91-.12-.515zM227.905 37.587l.12.515-3.905.911-.12-.515zM228.144 38.61l.12.515-3.905.91-.12-.514zM228.383 39.633l.12.515-3.905.91-.12-.515z"/><path d="M269.014 129.746h-37.888a1.894 1.894 0 0 1-1.889-1.888l-2.697-57.969c0-1.038.85-1.888 1.888-1.888h43.284c1.038 0 1.888.85 1.888 1.888l-2.697 57.969c0 1.038-.85 1.888-1.889 1.888" fill="#93736A" mask="url(#d)"/><path fill="#82CDE6" mask="url(#d)" d="M72.602 36.255H96.35v-10.02H72.602z"/><path fill="#708DA0" mask="url(#d)" d="M110.41 36.255h23.748v-10.02h-23.749z"/><path fill="#4A6271" mask="url(#d)" d="M148.216 36.255h23.748v-10.02h-23.748z"/><path fill="#CBD8DE" mask="url(#d)" d="M33.348 55.869h29.289v-3.695h-29.29zM33.348 70.354h29.289v-3.695h-29.29zM33.348 84.838h29.289v-3.695h-29.29zM33.348 99.323h29.289V95.63h-29.29z"/><path stroke="#CBD8DE" mask="url(#d)" d="M80.463 57.57h7.094v-7.095h-7.094zM118.736 57.57h7.094v-7.095h-7.094zM157.009 57.57h7.094v-7.095h-7.094zM80.463 72.054h7.094V64.96h-7.094zM118.736 72.054h7.094V64.96h-7.094zM157.009 72.054h7.094V64.96h-7.094zM80.463 86.538h7.094v-7.094h-7.094zM118.736 86.538h7.094v-7.094h-7.094zM157.009 86.538h7.094v-7.094h-7.094zM80.463 101.024h7.094v-7.095h-7.094zM118.736 101.024h7.094v-7.095h-7.094zM157.009 101.024h7.094v-7.095h-7.094zM102.94 46.587v55.86M141.186 46.587v55.86"/><path stroke="#CC3C27" mask="url(#d)" d="M82.213 52.174l2.264 3.695 5.1-6.923M120.127 95.629l2.264 3.695 5.1-6.923M120.127 66.659l2.264 3.695 5.1-6.923M158.099 66.659l2.263 3.695 5.1-6.923M158.099 81.498l2.263 3.695 5.1-6.922M81.655 81.498l2.264 3.695 5.1-6.922"/><path d="M269.014 129.746h-18.943V68h21.641c1.038 0 1.888.85 1.888 1.888l-2.697 57.969c0 1.038-.85 1.888-1.889 1.888" fill="#80645C" mask="url(#d)"/></g></svg>