<svg width="204" height="194" viewBox="0 0 204 194" xmlns="http://www.w3.org/2000/svg" xmlns:xlink="http://www.w3.org/1999/xlink"><defs><path id="a" d="M0 192.882h203.712V.422H0z"/></defs><g fill="none" fill-rule="evenodd"><path fill="#CBD8DE" d="M116.362.795L6.382 5.95v138.796h114.185V5.949z"/><path fill="#EDF4F3" d="M2.306 140.345h114.056V6.71H2.306z"/><g transform="translate(.395 .373)"><path d="M54.615 73.797c6.292-4.974 13.167-8.486 13.167-14.923 0-4.681-2.487-7.827-6.95-7.827-5.047 0-8.046 3.657-8.192 10.169h-9.363c0-11.412 5.852-18.654 17.775-18.654 10.9 0 17.045 7.389 17.045 16.02 0 9.437-6.438 13.897-12.582 17.994-3.877 2.488-8.412 5.707-10.095 8.925h23.115v8.193h-35.99c.366-9.582 6.365-15.435 12.07-19.897z" fill="#103A5E"/><mask id="b" fill="#fff"><use xlink:href="#a"/></mask><path fill="#EA4124" mask="url(#b)" d="M28.628 116.552h63.824v-8.85H28.628z"/><path fill="#CBD8DE" mask="url(#b)" d="M3.963 142.166h6.159v-2.194H3.963zM3.303 24.634l44.066 1.564 18.427-1.54 17.256.582 5.034 5.123 4.135-3.535 2.339-.823 3.023 1.678 18.384-2.32v-8.177L1.911 21.705z"/><path fill="#EDF4F3" mask="url(#b)" d="M1.912 21.705l44.875.959 18.426-1.54 17.257.581 5.034 5.123 4.134-3.534 2.339-.823L97 24.15l18.967-2.444v-6.197L1.912 17.185z"/><path d="M110.821 18.021H5.146A5.146 5.146 0 0 1 0 12.875V.421h115.968v12.454a5.146 5.146 0 0 1-5.147 5.146" fill="#99B1BF" mask="url(#b)"/><path d="M28.163 9.222a3.025 3.025 0 1 1-6.049 0 3.025 3.025 0 0 1 6.05 0M95.764 9.222a3.025 3.025 0 1 1-6.05 0 3.025 3.025 0 0 1 6.05 0" fill="#4A6271" mask="url(#b)"/><path fill="#CBD8DE" mask="url(#b)" d="M103.725 47.856L66.662 153.988l.776-14.068h-3.994l38.248-92.36z"/><path fill="#EDF4F3" mask="url(#b)" d="M185.886 78.638l-3.56.839-3.854 2.496-3.628-8.398-16.15-4.69-6.987-5.623-46.288-18.32-44.297 107.4 98.292 40.54 44.297-107.4-16.123-2.839z"/><path d="M138.167 102.194l-9.772-4.03 2.34-5.674c5.375 1.995 10.908 1.99 14.079-3.193l7.501 3.094-17.94 43.499-8.636-3.563 12.428-30.133z" fill="#103A5E" mask="url(#b)"/><path fill="#EA4124" mask="url(#b)" d="M147.473 164.341L92.47 141.656l3.146-7.627 55.003 22.685z"/></g></g></svg>